<svg width="30" height="30" viewBox="0 0 30 30" fill="none" xmlns="http://www.w3.org/2000/svg">
<path d="M29.4 0H0.6C0.27 0 0 0.27 0 0.6V29.4C0 29.73 0.27 30 0.6 30H29.4C29.73 30 30 29.73 30 29.4V0.6C30 0.27 29.736 0 29.4 0ZM20.88 6.45V6.978V16.218H19.08V6.978H10.92V18.186H20.88V19.68V19.986V23.016V23.322V23.976C20.88 24.438 20.502 24.816 20.04 24.816H9.96C9.498 24.816 9.12 24.438 9.12 23.976V23.4V23.016V21.936H10.92V23.016H19.08V19.986H9.96C9.498 19.986 9.12 19.608 9.12 19.146V18.528V18.18V6.978V6.63V6.012C9.12 5.55 9.498 5.172 9.96 5.172H20.04C20.502 5.172 20.88 5.55 20.88 6.012V6.45Z" fill="rgb(17, 85, 170)"/>
</svg>
